<svg width="200" height="200" viewBox="0 0 200 200" xmlns="http://www.w3.org/2000/svg">
  <circle cx="100" cy="100" r="90" fill="#f0f8f0"/>

  <path d="M 100 50 C 80 20, 50 20, 30 60 C 10 100, 50 150, 100 130 C 150 150, 190 100, 170 60 C 150 20, 120 20, 100 50 Z" fill="#8bc34a"/>

  <path d="M 100 50 C 90 35, 70 35, 60 60" stroke="#689f38" stroke-width="2" fill="none"/>
  <path d="M 100 50 C 110 35, 130 35, 140 60" stroke="#689f38" stroke-width="2" fill="none"/>

  <circle cx="160" cy="40" r="20" fill="#ffc107"/>
  <path d="M 160 20 L 160 10 M 180 40 L 190 40 M 160 60 L 160 70 M 140 40 L 130 40" stroke="#ffc107" stroke-width="2"/>
</svg>
